{
	"asset":{
		"generator":"Khronos glTF Blender I/O v4.0.44",
		"version":"2.0"
	},
	"scene":0,
	"scenes":[
		{
			"name":"Scene",
			"nodes":[
				0,
				1,
				2,
				3,
				4,
				5,
				6,
				7,
				8,
				9,
				10,
				11,
				12,
				13,
				14,
				15,
				16,
				17,
				18,
				19,
				20,
				21
			]
		}
	],
	"nodes":[
		{
			"mesh":0,
			"name":"Cube.001",
			"translation":[
				0,
				0.15000000596046448,
				0
			]
		},
		{
			"mesh":1,
			"name":"Cube.003",
			"translation":[
				0,
				-0.6231158375740051,
				0
			]
		},
		{
			"mesh":2,
			"name":"Cube.009",
			"translation":[
				3.98222017288208,
				-0.6231158375740051,
				0
			]
		},
		{
			"mesh":3,
			"name":"Cube.010",
			"translation":[
				0,
				0.15000000596046448,
				-1.934227705001831
			]
		},
		{
			"mesh":4,
			"name":"Cube.011",
			"translation":[
				0,
				-0.6231158375740051,
				-1.934227705001831
			]
		},
		{
			"mesh":5,
			"name":"Cube.012",
			"translation":[
				3.98222017288208,
				-0.6231158375740051,
				-1.934227705001831
			]
		},
		{
			"mesh":6,
			"name":"Cube.013",
			"translation":[
				0,
				0.15000000596046448,
				-3.8693902492523193
			]
		},
		{
			"mesh":7,
			"name":"Cube.014",
			"translation":[
				0,
				-0.6231158375740051,
				-3.8693902492523193
			]
		},
		{
			"mesh":8,
			"name":"Cube.015",
			"translation":[
				3.98222017288208,
				-0.6231158375740051,
				-3.8693902492523193
			]
		},
		{
			"mesh":9,
			"name":"Cube.016",
			"translation":[
				0,
				0.15000000596046448,
				-5.8195905685424805
			]
		},
		{
			"mesh":10,
			"name":"Cube.017",
			"translation":[
				0,
				-0.6231158375740051,
				-5.8195905685424805
			]
		},
		{
			"mesh":11,
			"name":"Cube.018",
			"translation":[
				3.98222017288208,
				-0.6231158375740051,
				-5.8195905685424805
			]
		},
		{
			"mesh":12,
			"name":"Cube.019",
			"translation":[
				3.0034286975860596,
				-1.3248380422592163,
				-2.896627902984619
			]
		},
		{
			"mesh":13,
			"name":"Cube.020",
			"scale":[
				1.018634557723999,
				0.1883838027715683,
				1.018634557723999
			],
			"translation":[
				3.0034286975860596,
				-0.5561462044715881,
				-2.896627902984619
			]
		},
		{
			"mesh":14,
			"name":"Cube",
			"scale":[
				1,
				0.875,
				0.32499998807907104
			]
		},
		{
			"mesh":15,
			"name":"Cube.004",
			"rotation":[
				0,
				0.7071068286895752,
				0,
				0.7071068286895752
			],
			"scale":[
				1.25,
				1,
				0.5249999761581421
			],
			"translation":[
				0,
				0.05000000447034836,
				0
			]
		},
		{
			"mesh":16,
			"name":"Cube.002",
			"rotation":[
				0,
				0.7071068286895752,
				0,
				0.7071068286895752
			],
			"scale":[
				1,
				0.875,
				0.2750000059604645
			]
		},
		{
			"mesh":17,
			"name":"Cube.005",
			"scale":[
				4.25,
				1,
				4.25
			]
		},
		{
			"mesh":18,
			"name":"Cube.006",
			"scale":[
				2.1176469326019287,
				1,
				1.0588234663009644
			],
			"translation":[
				0,
				0.15000000596046448,
				-0.9000000357627869
			]
		},
		{
			"mesh":19,
			"name":"Cube.007",
			"scale":[
				1.0588234663009644,
				1,
				1.119291067123413
			],
			"translation":[
				-0.9000000357627869,
				-0.01719549298286438,
				0.9000000357627869
			]
		},
		{
			"mesh":20,
			"name":"Cube.008",
			"translation":[
				0,
				0.10000000894069672,
				0
			]
		},
		{
			"mesh":21,
			"name":"Circle",
			"scale":[
				1.2344284057617188,
				1.2344284057617188,
				1.2344284057617188
			],
			"translation":[
				0,
				0.34055063128471375,
				0
			]
		}
	],
	"materials":[
		{
			"doubleSided":true,
			"name":"Material",
			"pbrMetallicRoughness":{
				"baseColorFactor":[
					0,
					0,
					0,
					1
				],
				"metallicFactor":0.23853211104869843,
				"roughnessFactor":0.3807339370250702
			}
		},
		{
			"doubleSided":true,
			"name":"Material.001",
			"pbrMetallicRoughness":{}
		},
		{
			"doubleSided":true,
			"name":"Material.002",
			"pbrMetallicRoughness":{
				"baseColorFactor":[
					0,
					0,
					0,
					1
				],
				"metallicFactor":0,
				"roughnessFactor":0.5
			}
		}
	],
	"meshes":[
		{
			"name":"Cube",
			"primitives":[
				{
					"attributes":{
						"POSITION":0,
						"NORMAL":1,
						"TEXCOORD_0":2
					},
					"indices":3,
					"material":0
				}
			]
		},
		{
			"name":"Cube.005",
			"primitives":[
				{
					"attributes":{
						"POSITION":4,
						"NORMAL":5
					},
					"indices":6
				}
			]
		},
		{
			"name":"Cube.013",
			"primitives":[
				{
					"attributes":{
						"POSITION":7,
						"NORMAL":8
					},
					"indices":6
				}
			]
		},
		{
			"name":"Cube.014",
			"primitives":[
				{
					"attributes":{
						"POSITION":9,
						"NORMAL":10,
						"TEXCOORD_0":11
					},
					"indices":3,
					"material":0
				}
			]
		},
		{
			"name":"Cube.015",
			"primitives":[
				{
					"attributes":{
						"POSITION":12,
						"NORMAL":13
					},
					"indices":6
				}
			]
		},
		{
			"name":"Cube.016",
			"primitives":[
				{
					"attributes":{
						"POSITION":14,
						"NORMAL":15
					},
					"indices":6
				}
			]
		},
		{
			"name":"Cube.017",
			"primitives":[
				{
					"attributes":{
						"POSITION":16,
						"NORMAL":17,
						"TEXCOORD_0":18
					},
					"indices":3,
					"material":0
				}
			]
		},
		{
			"name":"Cube.018",
			"primitives":[
				{
					"attributes":{
						"POSITION":19,
						"NORMAL":20
					},
					"indices":6
				}
			]
		},
		{
			"name":"Cube.019",
			"primitives":[
				{
					"attributes":{
						"POSITION":21,
						"NORMAL":22
					},
					"indices":6
				}
			]
		},
		{
			"name":"Cube.020",
			"primitives":[
				{
					"attributes":{
						"POSITION":23,
						"NORMAL":24,
						"TEXCOORD_0":25
					},
					"indices":3,
					"material":0
				}
			]
		},
		{
			"name":"Cube.021",
			"primitives":[
				{
					"attributes":{
						"POSITION":26,
						"NORMAL":27
					},
					"indices":6
				}
			]
		},
		{
			"name":"Cube.022",
			"primitives":[
				{
					"attributes":{
						"POSITION":28,
						"NORMAL":29
					},
					"indices":6
				}
			]
		},
		{
			"name":"Cube.023",
			"primitives":[
				{
					"attributes":{
						"POSITION":30,
						"NORMAL":31
					},
					"indices":32,
					"material":1
				}
			]
		},
		{
			"name":"Cube.024",
			"primitives":[
				{
					"attributes":{
						"POSITION":33,
						"NORMAL":34
					},
					"indices":32,
					"material":2
				}
			]
		},
		{
			"name":"Cube.007",
			"primitives":[
				{
					"attributes":{
						"POSITION":35,
						"NORMAL":36,
						"TEXCOORD_0":37
					},
					"indices":38
				}
			]
		},
		{
			"name":"Cube.010",
			"primitives":[
				{
					"attributes":{
						"POSITION":39,
						"NORMAL":40,
						"TEXCOORD_0":41
					},
					"indices":42
				}
			]
		},
		{
			"name":"Cube.008",
			"primitives":[
				{
					"attributes":{
						"POSITION":43,
						"NORMAL":44,
						"TEXCOORD_0":45
					},
					"indices":42
				}
			]
		},
		{
			"name":"Cube.011",
			"primitives":[
				{
					"attributes":{
						"POSITION":46,
						"NORMAL":47,
						"TEXCOORD_0":48
					},
					"indices":49
				}
			]
		},
		{
			"name":"Cube.001",
			"primitives":[
				{
					"attributes":{
						"POSITION":50,
						"NORMAL":51,
						"TEXCOORD_0":52
					},
					"indices":42
				}
			]
		},
		{
			"name":"Cube.002",
			"primitives":[
				{
					"attributes":{
						"POSITION":53,
						"NORMAL":54,
						"TEXCOORD_0":55
					},
					"indices":56
				}
			]
		},
		{
			"name":"Cube.006",
			"primitives":[
				{
					"attributes":{
						"POSITION":57,
						"NORMAL":58,
						"TEXCOORD_0":59
					},
					"indices":60
				}
			]
		},
		{
			"name":"Circle",
			"primitives":[
				{
					"attributes":{
						"POSITION":61,
						"NORMAL":62,
						"TEXCOORD_0":63
					},
					"indices":64
				}
			]
		}
	],
	"accessors":[
		{
			"bufferView":0,
			"componentType":5126,
			"count":10828,
			"max":[
				6.840000629425049,
				0.2250000238418579,
				0.9000000357627869
			],
			"min":[
				-0.9000000357627869,
				-0.3500000238418579,
				-0.9000000357627869
			],
			"type":"VEC3"
		},
		{
			"bufferView":1,
			"componentType":5126,
			"count":10828,
			"type":"VEC3"
		},
		{
			"bufferView":2,
			"componentType":5126,
			"count":10828,
			"type":"VEC2"
		},
		{
			"bufferView":3,
			"componentType":5123,
			"count":52800,
			"type":"SCALAR"
		},
		{
			"bufferView":4,
			"componentType":5126,
			"count":416,
			"max":[
				2.580000162124634,
				0.7518173456192017,
				0.6000000238418579
			],
			"min":[
				-0.6000000238418579,
				-0.2500000298023224,
				-0.6000000238418579
			],
			"type":"VEC3"
		},
		{
			"bufferView":5,
			"componentType":5126,
			"count":416,
			"type":"VEC3"
		},
		{
			"bufferView":6,
			"componentType":5123,
			"count":1056,
			"type":"SCALAR"
		},
		{
			"bufferView":7,
			"componentType":5126,
			"count":416,
			"max":[
				2.580000162124634,
				0.7518173456192017,
				0.6000000238418579
			],
			"min":[
				-0.6000000238418579,
				-0.2500000298023224,
				-0.6000000238418579
			],
			"type":"VEC3"
		},
		{
			"bufferView":8,
			"componentType":5126,
			"count":416,
			"type":"VEC3"
		},
		{
			"bufferView":9,
			"componentType":5126,
			"count":10828,
			"max":[
				6.840000629425049,
				0.2250000238418579,
				0.9000000357627869
			],
			"min":[
				-0.9000000357627869,
				-0.3500000238418579,
				-0.9000000357627869
			],
			"type":"VEC3"
		},
		{
			"bufferView":10,
			"componentType":5126,
			"count":10828,
			"type":"VEC3"
		},
		{
			"bufferView":11,
			"componentType":5126,
			"count":10828,
			"type":"VEC2"
		},
		{
			"bufferView":12,
			"componentType":5126,
			"count":416,
			"max":[
				2.580000162124634,
				0.7518173456192017,
				0.6000000238418579
			],
			"min":[
				-0.6000000238418579,
				-0.2500000298023224,
				-0.6000000238418579
			],
			"type":"VEC3"
		},
		{
			"bufferView":13,
			"componentType":5126,
			"count":416,
			"type":"VEC3"
		},
		{
			"bufferView":14,
			"componentType":5126,
			"count":416,
			"max":[
				2.580000162124634,
				0.7518173456192017,
				0.6000000238418579
			],
			"min":[
				-0.6000000238418579,
				-0.2500000298023224,
				-0.6000000238418579
			],
			"type":"VEC3"
		},
		{
			"bufferView":15,
			"componentType":5126,
			"count":416,
			"type":"VEC3"
		},
		{
			"bufferView":16,
			"componentType":5126,
			"count":10828,
			"max":[
				6.840000629425049,
				0.2250000238418579,
				0.9000000357627869
			],
			"min":[
				-0.9000000357627869,
				-0.3500000238418579,
				-0.9000000357627869
			],
			"type":"VEC3"
		},
		{
			"bufferView":17,
			"componentType":5126,
			"count":10828,
			"type":"VEC3"
		},
		{
			"bufferView":18,
			"componentType":5126,
			"count":10828,
			"type":"VEC2"
		},
		{
			"bufferView":19,
			"componentType":5126,
			"count":416,
			"max":[
				2.580000162124634,
				0.7518173456192017,
				0.6000000238418579
			],
			"min":[
				-0.6000000238418579,
				-0.2500000298023224,
				-0.6000000238418579
			],
			"type":"VEC3"
		},
		{
			"bufferView":20,
			"componentType":5126,
			"count":416,
			"type":"VEC3"
		},
		{
			"bufferView":21,
			"componentType":5126,
			"count":416,
			"max":[
				2.580000162124634,
				0.7518173456192017,
				0.6000000238418579
			],
			"min":[
				-0.6000000238418579,
				-0.2500000298023224,
				-0.6000000238418579
			],
			"type":"VEC3"
		},
		{
			"bufferView":22,
			"componentType":5126,
			"count":416,
			"type":"VEC3"
		},
		{
			"bufferView":23,
			"componentType":5126,
			"count":10828,
			"max":[
				6.840000629425049,
				0.2250000238418579,
				0.9000000357627869
			],
			"min":[
				-0.9000000357627869,
				-0.3500000238418579,
				-0.9000000357627869
			],
			"type":"VEC3"
		},
		{
			"bufferView":24,
			"componentType":5126,
			"count":10828,
			"type":"VEC3"
		},
		{
			"bufferView":25,
			"componentType":5126,
			"count":10828,
			"type":"VEC2"
		},
		{
			"bufferView":26,
			"componentType":5126,
			"count":416,
			"max":[
				2.580000162124634,
				0.7518173456192017,
				0.6000000238418579
			],
			"min":[
				-0.6000000238418579,
				-0.2500000298023224,
				-0.6000000238418579
			],
			"type":"VEC3"
		},
		{
			"bufferView":27,
			"componentType":5126,
			"count":416,
			"type":"VEC3"
		},
		{
			"bufferView":28,
			"componentType":5126,
			"count":416,
			"max":[
				2.580000162124634,
				0.7518173456192017,
				0.6000000238418579
			],
			"min":[
				-0.6000000238418579,
				-0.2500000298023224,
				-0.6000000238418579
			],
			"type":"VEC3"
		},
		{
			"bufferView":29,
			"componentType":5126,
			"count":416,
			"type":"VEC3"
		},
		{
			"bufferView":30,
			"componentType":5126,
			"count":224,
			"max":[
				4.32220983505249,
				1.0559786558151245,
				4.32220983505249
			],
			"min":[
				-4.32220983505249,
				-0.6286849975585938,
				-4.32220983505249
			],
			"type":"VEC3"
		},
		{
			"bufferView":31,
			"componentType":5126,
			"count":224,
			"type":"VEC3"
		},
		{
			"bufferView":32,
			"componentType":5123,
			"count":732,
			"type":"SCALAR"
		},
		{
			"bufferView":33,
			"componentType":5126,
			"count":224,
			"max":[
				4.32220983505249,
				1.0559786558151245,
				4.32220983505249
			],
			"min":[
				-4.32220983505249,
				-0.6286849975585938,
				-4.32220983505249
			],
			"type":"VEC3"
		},
		{
			"bufferView":34,
			"componentType":5126,
			"count":224,
			"type":"VEC3"
		},
		{
			"bufferView":35,
			"componentType":5126,
			"count":72,
			"max":[
				0.20000001788139343,
				0.20000001788139343,
				0.6153847575187683
			],
			"min":[
				-0.20000001788139343,
				-0.20000001788139343,
				-0.6153847575187683
			],
			"type":"VEC3"
		},
		{
			"bufferView":36,
			"componentType":5126,
			"count":72,
			"type":"VEC3"
		},
		{
			"bufferView":37,
			"componentType":5126,
			"count":72,
			"type":"VEC2"
		},
		{
			"bufferView":38,
			"componentType":5123,
			"count":132,
			"type":"SCALAR"
		},
		{
			"bufferView":39,
			"componentType":5126,
			"count":24,
			"max":[
				0.20000001788139343,
				0.20000001788139343,
				0.20000001788139343
			],
			"min":[
				-0.20000001788139343,
				-0.20000001788139343,
				-0.20000001788139343
			],
			"type":"VEC3"
		},
		{
			"bufferView":40,
			"componentType":5126,
			"count":24,
			"type":"VEC3"
		},
		{
			"bufferView":41,
			"componentType":5126,
			"count":24,
			"type":"VEC2"
		},
		{
			"bufferView":42,
			"componentType":5123,
			"count":36,
			"type":"SCALAR"
		},
		{
			"bufferView":43,
			"componentType":5126,
			"count":24,
			"max":[
				0.20000001788139343,
				0.20000001788139343,
				0.20000001788139343
			],
			"min":[
				-0.20000001788139343,
				-0.20000001788139343,
				-0.20000001788139343
			],
			"type":"VEC3"
		},
		{
			"bufferView":44,
			"componentType":5126,
			"count":24,
			"type":"VEC3"
		},
		{
			"bufferView":45,
			"componentType":5126,
			"count":24,
			"type":"VEC2"
		},
		{
			"bufferView":46,
			"componentType":5126,
			"count":48,
			"max":[
				0.20000001788139343,
				0.20000001788139343,
				0.20000001788139343
			],
			"min":[
				-0.20000001788139343,
				-0.20000001788139343,
				-0.20000001788139343
			],
			"type":"VEC3"
		},
		{
			"bufferView":47,
			"componentType":5126,
			"count":48,
			"type":"VEC3"
		},
		{
			"bufferView":48,
			"componentType":5126,
			"count":48,
			"type":"VEC2"
		},
		{
			"bufferView":49,
			"componentType":5123,
			"count":84,
			"type":"SCALAR"
		},
		{
			"bufferView":50,
			"componentType":5126,
			"count":24,
			"max":[
				0.8500000834465027,
				0.2250000238418579,
				0.8500000834465027
			],
			"min":[
				-0.8500000834465027,
				-0.2250000238418579,
				-0.8500000834465027
			],
			"type":"VEC3"
		},
		{
			"bufferView":51,
			"componentType":5126,
			"count":24,
			"type":"VEC3"
		},
		{
			"bufferView":52,
			"componentType":5126,
			"count":24,
			"type":"VEC2"
		},
		{
			"bufferView":53,
			"componentType":5126,
			"count":57,
			"max":[
				2.5500001907348633,
				0.2250000387430191,
				0.8499999642372131
			],
			"min":[
				-0.8500000834465027,
				-0.22500000894069672,
				-2.412240982055664
			],
			"type":"VEC3"
		},
		{
			"bufferView":54,
			"componentType":5126,
			"count":57,
			"type":"VEC3"
		},
		{
			"bufferView":55,
			"componentType":5126,
			"count":57,
			"type":"VEC2"
		},
		{
			"bufferView":56,
			"componentType":5123,
			"count":96,
			"type":"SCALAR"
		},
		{
			"bufferView":57,
			"componentType":5126,
			"count":168,
			"max":[
				0.8500000834465027,
				0.20000001788139343,
				0.8500000834465027
			],
			"min":[
				-0.8500000834465027,
				-0.20000001788139343,
				-0.8500000834465027
			],
			"type":"VEC3"
		},
		{
			"bufferView":58,
			"componentType":5126,
			"count":168,
			"type":"VEC3"
		},
		{
			"bufferView":59,
			"componentType":5126,
			"count":168,
			"type":"VEC2"
		},
		{
			"bufferView":60,
			"componentType":5123,
			"count":324,
			"type":"SCALAR"
		},
		{
			"bufferView":61,
			"componentType":5126,
			"count":17200,
			"max":[
				0.6000000238418579,
				0.19148887693881989,
				0.6000000238418579
			],
			"min":[
				-0.6000000238418579,
				0,
				-0.6000000238418579
			],
			"type":"VEC3"
		},
		{
			"bufferView":62,
			"componentType":5126,
			"count":17200,
			"type":"VEC3"
		},
		{
			"bufferView":63,
			"componentType":5126,
			"count":17200,
			"type":"VEC2"
		},
		{
			"bufferView":64,
			"componentType":5123,
			"count":26388,
			"type":"SCALAR"
		}
	],
	"bufferViews":[
		{
			"buffer":0,
			"byteLength":129936,
			"byteOffset":0,
			"target":34962
		},
		{
			"buffer":0,
			"byteLength":129936,
			"byteOffset":129936,
			"target":34962
		},
		{
			"buffer":0,
			"byteLength":86624,
			"byteOffset":259872,
			"target":34962
		},
		{
			"buffer":0,
			"byteLength":105600,
			"byteOffset":346496,
			"target":34963
		},
		{
			"buffer":0,
			"byteLength":4992,
			"byteOffset":452096,
			"target":34962
		},
		{
			"buffer":0,
			"byteLength":4992,
			"byteOffset":457088,
			"target":34962
		},
		{
			"buffer":0,
			"byteLength":2112,
			"byteOffset":462080,
			"target":34963
		},
		{
			"buffer":0,
			"byteLength":4992,
			"byteOffset":464192,
			"target":34962
		},
		{
			"buffer":0,
			"byteLength":4992,
			"byteOffset":469184,
			"target":34962
		},
		{
			"buffer":0,
			"byteLength":129936,
			"byteOffset":474176,
			"target":34962
		},
		{
			"buffer":0,
			"byteLength":129936,
			"byteOffset":604112,
			"target":34962
		},
		{
			"buffer":0,
			"byteLength":86624,
			"byteOffset":734048,
			"target":34962
		},
		{
			"buffer":0,
			"byteLength":4992,
			"byteOffset":820672,
			"target":34962
		},
		{
			"buffer":0,
			"byteLength":4992,
			"byteOffset":825664,
			"target":34962
		},
		{
			"buffer":0,
			"byteLength":4992,
			"byteOffset":830656,
			"target":34962
		},
		{
			"buffer":0,
			"byteLength":4992,
			"byteOffset":835648,
			"target":34962
		},
		{
			"buffer":0,
			"byteLength":129936,
			"byteOffset":840640,
			"target":34962
		},
		{
			"buffer":0,
			"byteLength":129936,
			"byteOffset":970576,
			"target":34962
		},
		{
			"buffer":0,
			"byteLength":86624,
			"byteOffset":1100512,
			"target":34962
		},
		{
			"buffer":0,
			"byteLength":4992,
			"byteOffset":1187136,
			"target":34962
		},
		{
			"buffer":0,
			"byteLength":4992,
			"byteOffset":1192128,
			"target":34962
		},
		{
			"buffer":0,
			"byteLength":4992,
			"byteOffset":1197120,
			"target":34962
		},
		{
			"buffer":0,
			"byteLength":4992,
			"byteOffset":1202112,
			"target":34962
		},
		{
			"buffer":0,
			"byteLength":129936,
			"byteOffset":1207104,
			"target":34962
		},
		{
			"buffer":0,
			"byteLength":129936,
			"byteOffset":1337040,
			"target":34962
		},
		{
			"buffer":0,
			"byteLength":86624,
			"byteOffset":1466976,
			"target":34962
		},
		{
			"buffer":0,
			"byteLength":4992,
			"byteOffset":1553600,
			"target":34962
		},
		{
			"buffer":0,
			"byteLength":4992,
			"byteOffset":1558592,
			"target":34962
		},
		{
			"buffer":0,
			"byteLength":4992,
			"byteOffset":1563584,
			"target":34962
		},
		{
			"buffer":0,
			"byteLength":4992,
			"byteOffset":1568576,
			"target":34962
		},
		{
			"buffer":0,
			"byteLength":2688,
			"byteOffset":1573568,
			"target":34962
		},
		{
			"buffer":0,
			"byteLength":2688,
			"byteOffset":1576256,
			"target":34962
		},
		{
			"buffer":0,
			"byteLength":1464,
			"byteOffset":1578944,
			"target":34963
		},
		{
			"buffer":0,
			"byteLength":2688,
			"byteOffset":1580408,
			"target":34962
		},
		{
			"buffer":0,
			"byteLength":2688,
			"byteOffset":1583096,
			"target":34962
		},
		{
			"buffer":0,
			"byteLength":864,
			"byteOffset":1585784,
			"target":34962
		},
		{
			"buffer":0,
			"byteLength":864,
			"byteOffset":1586648,
			"target":34962
		},
		{
			"buffer":0,
			"byteLength":576,
			"byteOffset":1587512,
			"target":34962
		},
		{
			"buffer":0,
			"byteLength":264,
			"byteOffset":1588088,
			"target":34963
		},
		{
			"buffer":0,
			"byteLength":288,
			"byteOffset":1588352,
			"target":34962
		},
		{
			"buffer":0,
			"byteLength":288,
			"byteOffset":1588640,
			"target":34962
		},
		{
			"buffer":0,
			"byteLength":192,
			"byteOffset":1588928,
			"target":34962
		},
		{
			"buffer":0,
			"byteLength":72,
			"byteOffset":1589120,
			"target":34963
		},
		{
			"buffer":0,
			"byteLength":288,
			"byteOffset":1589192,
			"target":34962
		},
		{
			"buffer":0,
			"byteLength":288,
			"byteOffset":1589480,
			"target":34962
		},
		{
			"buffer":0,
			"byteLength":192,
			"byteOffset":1589768,
			"target":34962
		},
		{
			"buffer":0,
			"byteLength":576,
			"byteOffset":1589960,
			"target":34962
		},
		{
			"buffer":0,
			"byteLength":576,
			"byteOffset":1590536,
			"target":34962
		},
		{
			"buffer":0,
			"byteLength":384,
			"byteOffset":1591112,
			"target":34962
		},
		{
			"buffer":0,
			"byteLength":168,
			"byteOffset":1591496,
			"target":34963
		},
		{
			"buffer":0,
			"byteLength":288,
			"byteOffset":1591664,
			"target":34962
		},
		{
			"buffer":0,
			"byteLength":288,
			"byteOffset":1591952,
			"target":34962
		},
		{
			"buffer":0,
			"byteLength":192,
			"byteOffset":1592240,
			"target":34962
		},
		{
			"buffer":0,
			"byteLength":684,
			"byteOffset":1592432,
			"target":34962
		},
		{
			"buffer":0,
			"byteLength":684,
			"byteOffset":1593116,
			"target":34962
		},
		{
			"buffer":0,
			"byteLength":456,
			"byteOffset":1593800,
			"target":34962
		},
		{
			"buffer":0,
			"byteLength":192,
			"byteOffset":1594256,
			"target":34963
		},
		{
			"buffer":0,
			"byteLength":2016,
			"byteOffset":1594448,
			"target":34962
		},
		{
			"buffer":0,
			"byteLength":2016,
			"byteOffset":1596464,
			"target":34962
		},
		{
			"buffer":0,
			"byteLength":1344,
			"byteOffset":1598480,
			"target":34962
		},
		{
			"buffer":0,
			"byteLength":648,
			"byteOffset":1599824,
			"target":34963
		},
		{
			"buffer":0,
			"byteLength":206400,
			"byteOffset":1600472,
			"target":34962
		},
		{
			"buffer":0,
			"byteLength":206400,
			"byteOffset":1806872,
			"target":34962
		},
		{
			"buffer":0,
			"byteLength":137600,
			"byteOffset":2013272,
			"target":34962
		},
		{
			"buffer":0,
			"byteLength":52776,
			"byteOffset":2150872,
			"target":34963
		}
	],
	"buffers":[
		{
			"byteLength":2203648,
			"uri":"MacropadRender.bin"
		}
	]
}
